<svg width="1339" height="48" viewBox="0 0 1339 48" fill="none" xmlns="http://www.w3.org/2000/svg">
<g clip-path="url(#clip0_157_29787)">
<rect width="1339" height="48" rx="6" fill="#FFDECC"/>
<path d="M512.384 30L516.992 18.8H518.272L522.848 30H520.864L517.28 20.928H517.952L514.336 30H512.384ZM514.656 27.84V26.24H520.592V27.84H514.656ZM526.973 30.16C526.28 30.16 525.651 29.984 525.085 29.632C524.531 29.28 524.088 28.8053 523.757 28.208C523.437 27.6 523.277 26.9227 523.277 26.176C523.277 25.4187 523.437 24.7413 523.757 24.144C524.088 23.536 524.531 23.056 525.085 22.704C525.651 22.3413 526.28 22.16 526.973 22.16C527.56 22.16 528.077 22.288 528.525 22.544C528.984 22.7893 529.347 23.1307 529.613 23.568C529.88 24.0053 530.013 24.5013 530.013 25.056V27.264C530.013 27.8187 529.88 28.3147 529.613 28.752C529.357 29.1893 529 29.536 528.541 29.792C528.083 30.0373 527.56 30.16 526.973 30.16ZM527.261 28.496C527.699 28.496 528.077 28.4 528.397 28.208C528.728 28.0053 528.984 27.728 529.165 27.376C529.347 27.024 529.437 26.6187 529.437 26.16C529.437 25.7013 529.347 25.296 529.165 24.944C528.984 24.592 528.728 24.32 528.397 24.128C528.077 23.9253 527.699 23.824 527.261 23.824C526.835 23.824 526.456 23.9253 526.125 24.128C525.805 24.32 525.549 24.592 525.357 24.944C525.176 25.296 525.085 25.7013 525.085 26.16C525.085 26.6187 525.176 27.024 525.357 27.376C525.549 27.728 525.805 28.0053 526.125 28.208C526.456 28.4 526.835 28.496 527.261 28.496ZM531.085 30H529.325V27.936L529.629 26.064L529.325 24.208V18.48H531.085V30ZM533.039 30V22.32H534.799V30H533.039ZM538.143 30V25.424C538.143 24.912 537.983 24.5173 537.663 24.24C537.343 23.952 536.948 23.808 536.479 23.808C536.159 23.808 535.871 23.872 535.615 24C535.369 24.128 535.172 24.3147 535.023 24.56C534.873 24.7947 534.799 25.0827 534.799 25.424L534.111 25.04C534.111 24.4533 534.239 23.9467 534.495 23.52C534.751 23.0933 535.097 22.7627 535.535 22.528C535.972 22.2827 536.463 22.16 537.007 22.16C537.551 22.16 538.041 22.2773 538.479 22.512C538.916 22.7467 539.263 23.0773 539.519 23.504C539.775 23.9307 539.903 24.4427 539.903 25.04V30H538.143ZM543.247 30V25.424C543.247 24.912 543.087 24.5173 542.767 24.24C542.447 23.952 542.052 23.808 541.583 23.808C541.273 23.808 540.991 23.872 540.735 24C540.479 24.128 540.276 24.3147 540.127 24.56C539.977 24.7947 539.903 25.0827 539.903 25.424L538.911 25.04C538.964 24.4533 539.135 23.9467 539.423 23.52C539.711 23.0933 540.079 22.7627 540.527 22.528C540.985 22.2827 541.487 22.16 542.031 22.16C542.585 22.16 543.087 22.2773 543.535 22.512C543.983 22.7467 544.34 23.0773 544.607 23.504C544.873 23.9307 545.007 24.4427 545.007 25.04V30H543.247ZM546.836 30V22.32H548.596V30H546.836ZM547.716 20.912C547.417 20.912 547.166 20.8107 546.964 20.608C546.772 20.4053 546.676 20.1547 546.676 19.856C546.676 19.5573 546.772 19.3067 546.964 19.104C547.166 18.9013 547.417 18.8 547.716 18.8C548.025 18.8 548.276 18.9013 548.468 19.104C548.66 19.3067 548.756 19.5573 548.756 19.856C548.756 20.1547 548.66 20.4053 548.468 20.608C548.276 20.8107 548.025 20.912 547.716 20.912ZM553.082 30.16C552.655 30.16 552.244 30.1067 551.85 30C551.455 29.8827 551.092 29.7227 550.762 29.52C550.431 29.3067 550.143 29.0507 549.898 28.752L551.018 27.632C551.284 27.9413 551.588 28.176 551.93 28.336C552.282 28.4853 552.676 28.56 553.114 28.56C553.508 28.56 553.807 28.5013 554.01 28.384C554.212 28.2667 554.314 28.096 554.314 27.872C554.314 27.6373 554.218 27.456 554.026 27.328C553.834 27.2 553.583 27.0933 553.274 27.008C552.975 26.912 552.655 26.816 552.314 26.72C551.983 26.624 551.663 26.496 551.354 26.336C551.055 26.1653 550.81 25.936 550.618 25.648C550.426 25.36 550.33 24.9867 550.33 24.528C550.33 24.0373 550.442 23.616 550.666 23.264C550.9 22.912 551.226 22.64 551.642 22.448C552.068 22.256 552.575 22.16 553.162 22.16C553.78 22.16 554.324 22.272 554.794 22.496C555.274 22.7093 555.674 23.0347 555.994 23.472L554.874 24.592C554.65 24.3147 554.394 24.1067 554.106 23.968C553.818 23.8293 553.487 23.76 553.114 23.76C552.762 23.76 552.49 23.8133 552.298 23.92C552.106 24.0267 552.01 24.1813 552.01 24.384C552.01 24.5973 552.106 24.7627 552.298 24.88C552.49 24.9973 552.735 25.0987 553.034 25.184C553.343 25.2693 553.663 25.3653 553.994 25.472C554.335 25.568 554.655 25.7067 554.954 25.888C555.263 26.0587 555.514 26.2933 555.706 26.592C555.898 26.88 555.994 27.2587 555.994 27.728C555.994 28.4747 555.732 29.0667 555.21 29.504C554.687 29.9413 553.978 30.16 553.082 30.16ZM559.957 30.16C559.53 30.16 559.119 30.1067 558.725 30C558.33 29.8827 557.967 29.7227 557.637 29.52C557.306 29.3067 557.018 29.0507 556.773 28.752L557.893 27.632C558.159 27.9413 558.463 28.176 558.805 28.336C559.157 28.4853 559.551 28.56 559.989 28.56C560.383 28.56 560.682 28.5013 560.885 28.384C561.087 28.2667 561.189 28.096 561.189 27.872C561.189 27.6373 561.093 27.456 560.901 27.328C560.709 27.2 560.458 27.0933 560.149 27.008C559.85 26.912 559.53 26.816 559.189 26.72C558.858 26.624 558.538 26.496 558.229 26.336C557.93 26.1653 557.685 25.936 557.493 25.648C557.301 25.36 557.205 24.9867 557.205 24.528C557.205 24.0373 557.317 23.616 557.541 23.264C557.775 22.912 558.101 22.64 558.517 22.448C558.943 22.256 559.45 22.16 560.037 22.16C560.655 22.16 561.199 22.272 561.669 22.496C562.149 22.7093 562.549 23.0347 562.869 23.472L561.749 24.592C561.525 24.3147 561.269 24.1067 560.981 23.968C560.693 23.8293 560.362 23.76 559.989 23.76C559.637 23.76 559.365 23.8133 559.173 23.92C558.981 24.0267 558.885 24.1813 558.885 24.384C558.885 24.5973 558.981 24.7627 559.173 24.88C559.365 24.9973 559.61 25.0987 559.909 25.184C560.218 25.2693 560.538 25.3653 560.869 25.472C561.21 25.568 561.53 25.7067 561.829 25.888C562.138 26.0587 562.389 26.2933 562.581 26.592C562.773 26.88 562.869 27.2587 562.869 27.728C562.869 28.4747 562.607 29.0667 562.085 29.504C561.562 29.9413 560.853 30.16 559.957 30.16ZM564.336 30V22.32H566.096V30H564.336ZM565.216 20.912C564.917 20.912 564.666 20.8107 564.464 20.608C564.272 20.4053 564.176 20.1547 564.176 19.856C564.176 19.5573 564.272 19.3067 564.464 19.104C564.666 18.9013 564.917 18.8 565.216 18.8C565.525 18.8 565.776 18.9013 565.968 19.104C566.16 19.3067 566.256 19.5573 566.256 19.856C566.256 20.1547 566.16 20.4053 565.968 20.608C565.776 20.8107 565.525 20.912 565.216 20.912ZM571.59 30.16C570.843 30.16 570.166 29.984 569.558 29.632C568.95 29.2693 568.464 28.784 568.102 28.176C567.75 27.568 567.574 26.8907 567.574 26.144C567.574 25.3973 567.75 24.7253 568.102 24.128C568.464 23.5307 568.95 23.056 569.558 22.704C570.166 22.3413 570.843 22.16 571.59 22.16C572.347 22.16 573.03 22.336 573.638 22.688C574.246 23.04 574.726 23.52 575.078 24.128C575.44 24.7253 575.622 25.3973 575.622 26.144C575.622 26.8907 575.44 27.568 575.078 28.176C574.726 28.784 574.246 29.2693 573.638 29.632C573.03 29.984 572.347 30.16 571.59 30.16ZM571.59 28.464C572.027 28.464 572.411 28.368 572.742 28.176C573.083 27.9733 573.344 27.696 573.526 27.344C573.718 26.992 573.814 26.592 573.814 26.144C573.814 25.696 573.718 25.3013 573.526 24.96C573.334 24.6187 573.072 24.352 572.742 24.16C572.411 23.9573 572.027 23.856 571.59 23.856C571.163 23.856 570.779 23.9573 570.438 24.16C570.107 24.352 569.846 24.6187 569.654 24.96C569.472 25.3013 569.382 25.696 569.382 26.144C569.382 26.592 569.472 26.992 569.654 27.344C569.846 27.696 570.107 27.9733 570.438 28.176C570.779 28.368 571.163 28.464 571.59 28.464ZM582.349 30V25.568C582.349 25.056 582.184 24.6347 581.853 24.304C581.533 23.9733 581.117 23.808 580.605 23.808C580.264 23.808 579.96 23.8827 579.693 24.032C579.427 24.1813 579.219 24.3893 579.069 24.656C578.92 24.9227 578.845 25.2267 578.845 25.568L578.157 25.184C578.157 24.5973 578.285 24.08 578.541 23.632C578.797 23.1733 579.149 22.816 579.597 22.56C580.056 22.2933 580.568 22.16 581.133 22.16C581.709 22.16 582.221 22.3093 582.669 22.608C583.117 22.896 583.469 23.2747 583.725 23.744C583.981 24.2027 584.109 24.6827 584.109 25.184V30H582.349ZM577.085 30V22.32H578.845V30H577.085ZM589.117 30V22.32H590.877V30H589.117ZM589.997 20.912C589.698 20.912 589.448 20.8107 589.245 20.608C589.053 20.4053 588.957 20.1547 588.957 19.856C588.957 19.5573 589.053 19.3067 589.245 19.104C589.448 18.9013 589.698 18.8 589.997 18.8C590.306 18.8 590.557 18.9013 590.749 19.104C590.941 19.3067 591.037 19.5573 591.037 19.856C591.037 20.1547 590.941 20.4053 590.749 20.608C590.557 20.8107 590.306 20.912 589.997 20.912ZM595.363 30.16C594.936 30.16 594.526 30.1067 594.131 30C593.736 29.8827 593.374 29.7227 593.043 29.52C592.712 29.3067 592.424 29.0507 592.179 28.752L593.299 27.632C593.566 27.9413 593.87 28.176 594.211 28.336C594.563 28.4853 594.958 28.56 595.395 28.56C595.79 28.56 596.088 28.5013 596.291 28.384C596.494 28.2667 596.595 28.096 596.595 27.872C596.595 27.6373 596.499 27.456 596.307 27.328C596.115 27.2 595.864 27.0933 595.555 27.008C595.256 26.912 594.936 26.816 594.595 26.72C594.264 26.624 593.944 26.496 593.635 26.336C593.336 26.1653 593.091 25.936 592.899 25.648C592.707 25.36 592.611 24.9867 592.611 24.528C592.611 24.0373 592.723 23.616 592.947 23.264C593.182 22.912 593.507 22.64 593.923 22.448C594.35 22.256 594.856 22.16 595.443 22.16C596.062 22.16 596.606 22.272 597.075 22.496C597.555 22.7093 597.955 23.0347 598.275 23.472L597.155 24.592C596.931 24.3147 596.675 24.1067 596.387 23.968C596.099 23.8293 595.768 23.76 595.395 23.76C595.043 23.76 594.771 23.8133 594.579 23.92C594.387 24.0267 594.291 24.1813 594.291 24.384C594.291 24.5973 594.387 24.7627 594.579 24.88C594.771 24.9973 595.016 25.0987 595.315 25.184C595.624 25.2693 595.944 25.3653 596.275 25.472C596.616 25.568 596.936 25.7067 597.235 25.888C597.544 26.0587 597.795 26.2933 597.987 26.592C598.179 26.88 598.275 27.2587 598.275 27.728C598.275 28.4747 598.014 29.0667 597.491 29.504C596.968 29.9413 596.259 30.16 595.363 30.16ZM608.321 30.16C607.521 30.16 606.774 30.0107 606.081 29.712C605.388 29.4133 604.78 29.0027 604.257 28.48C603.734 27.9467 603.324 27.3333 603.025 26.64C602.737 25.936 602.593 25.184 602.593 24.384C602.593 23.584 602.737 22.8373 603.025 22.144C603.324 21.4507 603.729 20.8427 604.241 20.32C604.764 19.7867 605.366 19.376 606.049 19.088C606.742 18.7893 607.489 18.64 608.289 18.64C609.089 18.64 609.83 18.7893 610.513 19.088C611.206 19.376 611.814 19.7867 612.337 20.32C612.86 20.8427 613.265 21.456 613.553 22.16C613.852 22.8533 614.001 23.6 614.001 24.4C614.001 25.2 613.852 25.952 613.553 26.656C613.265 27.3493 612.86 27.9573 612.337 28.48C611.825 29.0027 611.222 29.4133 610.529 29.712C609.846 30.0107 609.11 30.16 608.321 30.16ZM608.289 28.4C609.046 28.4 609.708 28.2293 610.273 27.888C610.849 27.5467 611.297 27.0773 611.617 26.48C611.948 25.872 612.113 25.1733 612.113 24.384C612.113 23.7973 612.017 23.264 611.825 22.784C611.644 22.2933 611.382 21.872 611.041 21.52C610.7 21.1573 610.294 20.88 609.825 20.688C609.366 20.496 608.854 20.4 608.289 20.4C607.542 20.4 606.881 20.5707 606.305 20.912C605.74 21.2427 605.292 21.7067 604.961 22.304C604.641 22.9013 604.481 23.5947 604.481 24.384C604.481 24.9707 604.572 25.5147 604.753 26.016C604.945 26.5067 605.206 26.928 605.537 27.28C605.878 27.632 606.284 27.9093 606.753 28.112C607.222 28.304 607.734 28.4 608.289 28.4ZM619.744 30.16C619.158 30.16 618.635 30.0373 618.176 29.792C617.718 29.536 617.355 29.1893 617.088 28.752C616.832 28.3147 616.704 27.8187 616.704 27.264V25.056C616.704 24.5013 616.838 24.0053 617.104 23.568C617.371 23.1307 617.734 22.7893 618.192 22.544C618.651 22.288 619.168 22.16 619.744 22.16C620.438 22.16 621.062 22.3413 621.616 22.704C622.182 23.056 622.624 23.536 622.944 24.144C623.275 24.7413 623.44 25.4187 623.44 26.176C623.44 26.9227 623.275 27.6 622.944 28.208C622.624 28.8053 622.182 29.28 621.616 29.632C621.062 29.984 620.438 30.16 619.744 30.16ZM619.456 28.496C619.883 28.496 620.256 28.4 620.576 28.208C620.907 28.0053 621.163 27.728 621.344 27.376C621.536 27.024 621.632 26.6187 621.632 26.16C621.632 25.7013 621.536 25.296 621.344 24.944C621.163 24.592 620.907 24.32 620.576 24.128C620.256 23.9253 619.883 23.824 619.456 23.824C619.03 23.824 618.651 23.9253 618.32 24.128C617.99 24.32 617.734 24.592 617.552 24.944C617.371 25.296 617.28 25.7013 617.28 26.16C617.28 26.6187 617.371 27.024 617.552 27.376C617.734 27.728 617.99 28.0053 618.32 28.208C618.651 28.4 619.03 28.496 619.456 28.496ZM615.632 33.2V22.32H617.392V24.384L617.088 26.256L617.392 28.112V33.2H615.632ZM628.482 30.16C627.714 30.16 627.02 29.9893 626.402 29.648C625.794 29.296 625.308 28.816 624.946 28.208C624.594 27.6 624.418 26.9173 624.418 26.16C624.418 25.4027 624.594 24.7253 624.946 24.128C625.298 23.52 625.772 23.04 626.37 22.688C626.978 22.336 627.65 22.16 628.386 22.16C629.1 22.16 629.73 22.3253 630.274 22.656C630.828 22.9867 631.26 23.44 631.57 24.016C631.89 24.592 632.05 25.248 632.05 25.984C632.05 26.112 632.039 26.2453 632.017 26.384C632.007 26.512 631.986 26.656 631.954 26.816H625.65V25.376H631.042L630.386 25.952C630.364 25.4827 630.274 25.088 630.114 24.768C629.954 24.448 629.724 24.2027 629.426 24.032C629.138 23.8613 628.78 23.776 628.354 23.776C627.906 23.776 627.516 23.872 627.186 24.064C626.855 24.256 626.599 24.528 626.418 24.88C626.236 25.2213 626.146 25.632 626.146 26.112C626.146 26.592 626.242 27.0133 626.434 27.376C626.626 27.7387 626.898 28.0213 627.25 28.224C627.602 28.416 628.007 28.512 628.466 28.512C628.86 28.512 629.223 28.4427 629.554 28.304C629.895 28.1653 630.183 27.9627 630.418 27.696L631.538 28.832C631.164 29.2693 630.711 29.6 630.178 29.824C629.644 30.048 629.079 30.16 628.482 30.16ZM638.724 30V25.568C638.724 25.056 638.559 24.6347 638.228 24.304C637.908 23.9733 637.492 23.808 636.98 23.808C636.639 23.808 636.335 23.8827 636.068 24.032C635.802 24.1813 635.594 24.3893 635.444 24.656C635.295 24.9227 635.22 25.2267 635.22 25.568L634.532 25.184C634.532 24.5973 634.66 24.08 634.916 23.632C635.172 23.1733 635.524 22.816 635.972 22.56C636.431 22.2933 636.943 22.16 637.508 22.16C638.084 22.16 638.596 22.3093 639.044 22.608C639.492 22.896 639.844 23.2747 640.1 23.744C640.356 24.2027 640.484 24.6827 640.484 25.184V30H638.724ZM633.46 30V22.32H635.22V30H633.46ZM642.273 31.872L643.361 29.84L643.953 29.68C643.889 29.808 643.814 29.9147 643.729 30C643.644 30.0853 643.542 30.128 643.425 30.128C643.18 30.128 642.95 30.0267 642.737 29.824C642.534 29.6107 642.433 29.344 642.433 29.024C642.433 28.6827 642.545 28.3947 642.769 28.16C643.004 27.9147 643.292 27.792 643.633 27.792C643.953 27.792 644.23 27.9147 644.465 28.16C644.71 28.3947 644.833 28.6827 644.833 29.024C644.833 29.1627 644.801 29.328 644.737 29.52C644.684 29.7013 644.582 29.936 644.433 30.224L643.249 32.4L642.273 31.872ZM655.194 30.16C654.426 30.16 653.701 30.0107 653.018 29.712C652.335 29.4133 651.738 29.0027 651.226 28.48C650.714 27.9467 650.309 27.3333 650.01 26.64C649.722 25.936 649.578 25.184 649.578 24.384C649.578 23.584 649.722 22.8373 650.01 22.144C650.309 21.4507 650.714 20.8427 651.226 20.32C651.749 19.7867 652.357 19.376 653.05 19.088C653.754 18.7893 654.511 18.64 655.322 18.64C656.207 18.64 657.029 18.8107 657.786 19.152C658.543 19.4933 659.178 19.9787 659.69 20.608L658.442 21.856C658.111 21.3867 657.669 21.0293 657.114 20.784C656.559 20.528 655.962 20.4 655.322 20.4C654.554 20.4 653.877 20.5707 653.29 20.912C652.714 21.2427 652.266 21.7067 651.946 22.304C651.626 22.9013 651.466 23.5947 651.466 24.384C651.466 25.1733 651.626 25.872 651.946 26.48C652.277 27.0773 652.719 27.5467 653.274 27.888C653.829 28.2293 654.458 28.4 655.162 28.4C655.909 28.4 656.549 28.2667 657.082 28C657.626 27.7227 658.042 27.3173 658.33 26.784C658.618 26.24 658.762 25.5733 658.762 24.784L659.914 25.616H655.13V23.936H660.666V24.192C660.666 25.5253 660.426 26.6347 659.946 27.52C659.477 28.4053 658.831 29.0667 658.01 29.504C657.189 29.9413 656.25 30.16 655.194 30.16ZM662.257 30V22.32H664.017V30H662.257ZM664.017 25.728L663.409 25.424C663.409 24.4533 663.623 23.6693 664.049 23.072C664.487 22.464 665.143 22.16 666.017 22.16C666.401 22.16 666.748 22.2293 667.057 22.368C667.367 22.5067 667.655 22.7307 667.921 23.04L666.769 24.224C666.631 24.0747 666.476 23.968 666.305 23.904C666.135 23.84 665.937 23.808 665.713 23.808C665.223 23.808 664.817 23.9627 664.497 24.272C664.177 24.5813 664.017 25.0667 664.017 25.728ZM671.755 30.16C671.061 30.16 670.432 29.984 669.867 29.632C669.312 29.28 668.869 28.8053 668.539 28.208C668.219 27.6 668.059 26.9227 668.059 26.176C668.059 25.4187 668.219 24.7413 668.539 24.144C668.869 23.536 669.312 23.056 669.867 22.704C670.432 22.3413 671.061 22.16 671.755 22.16C672.341 22.16 672.859 22.288 673.307 22.544C673.765 22.7893 674.128 23.1307 674.395 23.568C674.661 24.0053 674.795 24.5013 674.795 25.056V27.264C674.795 27.8187 674.661 28.3147 674.395 28.752C674.139 29.1893 673.781 29.536 673.323 29.792C672.864 30.0373 672.341 30.16 671.755 30.16ZM672.043 28.496C672.693 28.496 673.216 28.2773 673.611 27.84C674.016 27.4027 674.219 26.8427 674.219 26.16C674.219 25.7013 674.128 25.296 673.947 24.944C673.765 24.592 673.509 24.32 673.179 24.128C672.859 23.9253 672.48 23.824 672.043 23.824C671.616 23.824 671.237 23.9253 670.907 24.128C670.587 24.32 670.331 24.592 670.139 24.944C669.957 25.296 669.867 25.7013 669.867 26.16C669.867 26.6187 669.957 27.024 670.139 27.376C670.331 27.728 670.587 28.0053 670.907 28.208C671.237 28.4 671.616 28.496 672.043 28.496ZM674.107 30V27.936L674.411 26.064L674.107 24.208V22.32H675.867V30H674.107ZM681.932 30.16C681.345 30.16 680.822 30.0373 680.364 29.792C679.905 29.536 679.542 29.1893 679.276 28.752C679.02 28.3147 678.892 27.8187 678.892 27.264V25.056C678.892 24.5013 679.025 24.0053 679.292 23.568C679.558 23.1307 679.921 22.7893 680.38 22.544C680.838 22.288 681.356 22.16 681.932 22.16C682.625 22.16 683.249 22.3413 683.804 22.704C684.369 23.056 684.812 23.536 685.132 24.144C685.462 24.7413 685.628 25.4187 685.628 26.176C685.628 26.9227 685.462 27.6 685.132 28.208C684.812 28.8053 684.369 29.28 683.804 29.632C683.249 29.984 682.625 30.16 681.932 30.16ZM681.644 28.496C682.07 28.496 682.444 28.4 682.764 28.208C683.094 28.0053 683.35 27.728 683.532 27.376C683.724 27.024 683.82 26.6187 683.82 26.16C683.82 25.7013 683.724 25.296 683.532 24.944C683.35 24.592 683.094 24.32 682.764 24.128C682.444 23.9253 682.07 23.824 681.644 23.824C681.217 23.824 680.838 23.9253 680.508 24.128C680.177 24.32 679.921 24.592 679.74 24.944C679.558 25.296 679.468 25.7013 679.468 26.16C679.468 26.6187 679.558 27.024 679.74 27.376C679.921 27.728 680.177 28.0053 680.508 28.208C680.838 28.4 681.217 28.496 681.644 28.496ZM677.82 30V18.48H679.58V24.208L679.276 26.064L679.58 27.936V30H677.82ZM692.784 30.08L689.504 22.32H691.44L693.68 28.016H693.12L695.488 22.32H697.44L693.872 30.08H692.784ZM690.496 33.2L692.88 28.288L693.872 30.08L692.448 33.2H690.496ZM701.715 30.16C700.968 30.16 700.291 29.984 699.683 29.632C699.075 29.2693 698.589 28.784 698.227 28.176C697.875 27.568 697.699 26.8907 697.699 26.144C697.699 25.3973 697.875 24.7253 698.227 24.128C698.589 23.5307 699.075 23.056 699.683 22.704C700.291 22.3413 700.968 22.16 701.715 22.16C702.472 22.16 703.155 22.336 703.763 22.688C704.371 23.04 704.851 23.52 705.203 24.128C705.565 24.7253 705.747 25.3973 705.747 26.144C705.747 26.8907 705.565 27.568 705.203 28.176C704.851 28.784 704.371 29.2693 703.763 29.632C703.155 29.984 702.472 30.16 701.715 30.16ZM701.715 28.464C702.152 28.464 702.536 28.368 702.867 28.176C703.208 27.9733 703.469 27.696 703.651 27.344C703.843 26.992 703.939 26.592 703.939 26.144C703.939 25.696 703.843 25.3013 703.651 24.96C703.459 24.6187 703.197 24.352 702.867 24.16C702.536 23.9573 702.152 23.856 701.715 23.856C701.288 23.856 700.904 23.9573 700.563 24.16C700.232 24.352 699.971 24.6187 699.779 24.96C699.597 25.3013 699.507 25.696 699.507 26.144C699.507 26.592 699.597 26.992 699.779 27.344C699.971 27.696 700.232 27.9733 700.563 28.176C700.904 28.368 701.288 28.464 701.715 28.464ZM710.362 30.16C709.712 30.16 709.13 30.016 708.618 29.728C708.117 29.44 707.722 29.0453 707.434 28.544C707.157 28.032 707.018 27.4453 707.018 26.784V22.32H708.778V26.704C708.778 27.0773 708.837 27.3973 708.954 27.664C709.082 27.92 709.264 28.1173 709.498 28.256C709.744 28.3947 710.032 28.464 710.362 28.464C710.874 28.464 711.264 28.3147 711.53 28.016C711.808 27.7067 711.946 27.2693 711.946 26.704V22.32H713.706V26.784C713.706 27.456 713.562 28.048 713.274 28.56C712.997 29.0613 712.608 29.456 712.106 29.744C711.605 30.0213 711.024 30.16 710.362 30.16ZM715.476 30V22.32H717.236V30H715.476ZM717.236 25.728L716.628 25.424C716.628 24.4533 716.841 23.6693 717.268 23.072C717.705 22.464 718.361 22.16 719.236 22.16C719.62 22.16 719.967 22.2293 720.276 22.368C720.585 22.5067 720.873 22.7307 721.14 23.04L719.988 24.224C719.849 24.0747 719.695 23.968 719.524 23.904C719.353 23.84 719.156 23.808 718.932 23.808C718.441 23.808 718.036 23.9627 717.716 24.272C717.396 24.5813 717.236 25.0667 717.236 25.728ZM727.988 30.16C727.561 30.16 727.151 30.1067 726.756 30C726.361 29.8827 725.999 29.7227 725.668 29.52C725.337 29.3067 725.049 29.0507 724.804 28.752L725.924 27.632C726.191 27.9413 726.495 28.176 726.836 28.336C727.188 28.4853 727.583 28.56 728.02 28.56C728.415 28.56 728.713 28.5013 728.916 28.384C729.119 28.2667 729.22 28.096 729.22 27.872C729.22 27.6373 729.124 27.456 728.932 27.328C728.74 27.2 728.489 27.0933 728.18 27.008C727.881 26.912 727.561 26.816 727.22 26.72C726.889 26.624 726.569 26.496 726.26 26.336C725.961 26.1653 725.716 25.936 725.524 25.648C725.332 25.36 725.236 24.9867 725.236 24.528C725.236 24.0373 725.348 23.616 725.572 23.264C725.807 22.912 726.132 22.64 726.548 22.448C726.975 22.256 727.481 22.16 728.068 22.16C728.687 22.16 729.231 22.272 729.7 22.496C730.18 22.7093 730.58 23.0347 730.9 23.472L729.78 24.592C729.556 24.3147 729.3 24.1067 729.012 23.968C728.724 23.8293 728.393 23.76 728.02 23.76C727.668 23.76 727.396 23.8133 727.204 23.92C727.012 24.0267 726.916 24.1813 726.916 24.384C726.916 24.5973 727.012 24.7627 727.204 24.88C727.396 24.9973 727.641 25.0987 727.94 25.184C728.249 25.2693 728.569 25.3653 728.9 25.472C729.241 25.568 729.561 25.7067 729.86 25.888C730.169 26.0587 730.42 26.2933 730.612 26.592C730.804 26.88 730.9 27.2587 730.9 27.728C730.9 28.4747 730.639 29.0667 730.116 29.504C729.593 29.9413 728.884 30.16 727.988 30.16ZM735.919 30.16C735.151 30.16 734.458 29.9893 733.839 29.648C733.231 29.296 732.746 28.816 732.383 28.208C732.031 27.6 731.855 26.9173 731.855 26.16C731.855 25.4027 732.031 24.7253 732.383 24.128C732.735 23.52 733.21 23.04 733.807 22.688C734.415 22.336 735.087 22.16 735.823 22.16C736.538 22.16 737.167 22.3253 737.711 22.656C738.266 22.9867 738.698 23.44 739.007 24.016C739.327 24.592 739.487 25.248 739.487 25.984C739.487 26.112 739.476 26.2453 739.455 26.384C739.444 26.512 739.423 26.656 739.391 26.816H733.087V25.376H738.479L737.823 25.952C737.802 25.4827 737.711 25.088 737.551 24.768C737.391 24.448 737.162 24.2027 736.863 24.032C736.575 23.8613 736.218 23.776 735.791 23.776C735.343 23.776 734.954 23.872 734.623 24.064C734.292 24.256 734.036 24.528 733.855 24.88C733.674 25.2213 733.583 25.632 733.583 26.112C733.583 26.592 733.679 27.0133 733.871 27.376C734.063 27.7387 734.335 28.0213 734.687 28.224C735.039 28.416 735.444 28.512 735.903 28.512C736.298 28.512 736.66 28.4427 736.991 28.304C737.332 28.1653 737.62 27.9627 737.855 27.696L738.975 28.832C738.602 29.2693 738.148 29.6 737.615 29.824C737.082 30.048 736.516 30.16 735.919 30.16ZM744.114 30.16C743.421 30.16 742.791 29.984 742.226 29.632C741.671 29.28 741.229 28.8053 740.898 28.208C740.578 27.6 740.418 26.9227 740.418 26.176C740.418 25.4187 740.578 24.7413 740.898 24.144C741.229 23.536 741.671 23.056 742.226 22.704C742.791 22.3413 743.421 22.16 744.114 22.16C744.701 22.16 745.218 22.288 745.666 22.544C746.125 22.7893 746.487 23.1307 746.754 23.568C747.021 24.0053 747.154 24.5013 747.154 25.056V27.264C747.154 27.8187 747.021 28.3147 746.754 28.752C746.498 29.1893 746.141 29.536 745.682 29.792C745.223 30.0373 744.701 30.16 744.114 30.16ZM744.402 28.496C745.053 28.496 745.575 28.2773 745.97 27.84C746.375 27.4027 746.578 26.8427 746.578 26.16C746.578 25.7013 746.487 25.296 746.306 24.944C746.125 24.592 745.869 24.32 745.538 24.128C745.218 23.9253 744.839 23.824 744.402 23.824C743.975 23.824 743.597 23.9253 743.266 24.128C742.946 24.32 742.69 24.592 742.498 24.944C742.317 25.296 742.226 25.7013 742.226 26.16C742.226 26.6187 742.317 27.024 742.498 27.376C742.69 27.728 742.946 28.0053 743.266 28.208C743.597 28.4 743.975 28.496 744.402 28.496ZM746.466 30V27.936L746.77 26.064L746.466 24.208V22.32H748.226V30H746.466ZM751.347 30V19.12H753.107V30H751.347ZM749.507 23.92V22.32H754.947V23.92H749.507ZM764.693 30V25.568C764.693 25.056 764.528 24.6347 764.197 24.304C763.877 23.9733 763.461 23.808 762.949 23.808C762.608 23.808 762.304 23.8827 762.037 24.032C761.77 24.1813 761.562 24.3893 761.413 24.656C761.264 24.9227 761.189 25.2267 761.189 25.568L760.501 25.184C760.501 24.5973 760.629 24.08 760.885 23.632C761.141 23.1733 761.493 22.816 761.941 22.56C762.4 22.2933 762.912 22.16 763.477 22.16C764.053 22.16 764.565 22.3093 765.013 22.608C765.461 22.896 765.813 23.2747 766.069 23.744C766.325 24.2027 766.453 24.6827 766.453 25.184V30H764.693ZM759.429 30V22.32H761.189V30H759.429ZM771.762 30.16C771.015 30.16 770.338 29.984 769.73 29.632C769.122 29.2693 768.636 28.784 768.274 28.176C767.922 27.568 767.746 26.8907 767.746 26.144C767.746 25.3973 767.922 24.7253 768.274 24.128C768.636 23.5307 769.122 23.056 769.73 22.704C770.338 22.3413 771.015 22.16 771.762 22.16C772.519 22.16 773.202 22.336 773.81 22.688C774.418 23.04 774.898 23.52 775.25 24.128C775.612 24.7253 775.794 25.3973 775.794 26.144C775.794 26.8907 775.612 27.568 775.25 28.176C774.898 28.784 774.418 29.2693 773.81 29.632C773.202 29.984 772.519 30.16 771.762 30.16ZM771.762 28.464C772.199 28.464 772.583 28.368 772.914 28.176C773.255 27.9733 773.516 27.696 773.698 27.344C773.89 26.992 773.986 26.592 773.986 26.144C773.986 25.696 773.89 25.3013 773.698 24.96C773.506 24.6187 773.244 24.352 772.914 24.16C772.583 23.9573 772.199 23.856 771.762 23.856C771.335 23.856 770.951 23.9573 770.61 24.16C770.279 24.352 770.018 24.6187 769.826 24.96C769.644 25.3013 769.554 25.696 769.554 26.144C769.554 26.592 769.644 26.992 769.826 27.344C770.018 27.696 770.279 27.9733 770.61 28.176C770.951 28.368 771.335 28.464 771.762 28.464ZM779.31 30L776.222 22.32H778.046L780.126 27.904L779.582 27.92L781.614 22.32H782.638L784.67 27.92L784.126 27.904L786.206 22.32H788.03L784.942 30H783.918L781.838 24.688H782.414L780.334 30H779.31Z" fill="#262626"/>
<path fill-rule="evenodd" clip-rule="evenodd" d="M806.6 23.9999C806.6 23.5029 807.003 23.0999 807.5 23.0999L820.266 23.0999L815.276 18.3487C814.918 18.0042 814.907 17.4344 815.251 17.0762C815.596 16.7179 816.166 16.7067 816.524 17.0512L823.124 23.3512C823.3 23.5209 823.4 23.7551 823.4 23.9999C823.4 24.2448 823.3 24.479 823.124 24.6487L816.524 30.9487C816.166 31.2932 815.596 31.282 815.251 30.9237C814.907 30.5655 814.918 29.9957 815.276 29.6512L820.266 24.8999L807.5 24.8999C807.003 24.8999 806.6 24.497 806.6 23.9999Z" fill="#262626"/>
<g opacity="0.5">
<rect width="45" height="45" transform="matrix(4.37114e-08 1 1 -4.37114e-08 -9 3)" fill="#FF9E66"/>
<rect width="45" height="45" transform="matrix(-4.37114e-08 -1 -1 4.37114e-08 36 3)" fill="#FFBE99"/>
<rect width="45" height="45" transform="matrix(4.37114e-08 1 1 -4.37114e-08 36 3)" fill="white"/>
<path d="M36 48C41.9095 48 47.7611 46.836 53.2208 44.5746C58.6804 42.3131 63.6412 38.9984 67.8198 34.8198C71.9984 30.6412 75.3131 25.6804 77.5746 20.2208C79.836 14.7611 81 8.90948 81 3L36 3.00001L36 48Z" fill="#FF9E66"/>
<rect width="45" height="45" transform="matrix(-4.37114e-08 -1 -1 4.37114e-08 81 3)" fill="#FF9E66"/>
<path d="M36 -42C41.9095 -42 47.7611 -40.836 53.2208 -38.5746C58.6804 -36.3131 63.6412 -32.9984 67.8198 -28.8198C71.9984 -24.6412 75.3131 -19.6804 77.5746 -14.2208C79.836 -8.7611 81 -2.90948 81 3L36 3L36 -42Z" fill="#FFBE99"/>
<rect width="45" height="45" transform="matrix(4.37114e-08 1 1 -4.37114e-08 81 3)" fill="white"/>
<path d="M126 48C120.091 48 114.239 46.836 108.779 44.5746C103.32 42.3131 98.3588 38.9984 94.1802 34.8198C90.0016 30.6412 86.6869 25.6804 84.4254 20.2208C82.164 14.7611 81 8.90948 81 3L126 3L126 48Z" fill="#FF9E66"/>
<rect width="45" height="45" transform="matrix(-4.37114e-08 -1 -1 4.37114e-08 126 3)" fill="#FF9E66"/>
<rect width="45" height="45" transform="matrix(4.37114e-08 1 1 -4.37114e-08 126 3)" fill="url(#paint0_linear_157_29787)"/>
<rect width="45" height="45" transform="matrix(-4.37114e-08 -1 -1 4.37114e-08 171 3)" fill="url(#paint1_linear_157_29787)"/>
<rect width="45" height="22.5" transform="matrix(-4.37114e-08 -1 -1 4.37114e-08 171 3)" fill="url(#paint2_linear_157_29787)"/>
<path d="M126 -19.5C126 -7.07359 136.074 3 148.5 3L148.5 -42C136.074 -42 126 -31.9264 126 -19.5Z" fill="#FFBE99"/>
</g>
<g opacity="0.5">
<rect x="1339" y="3" width="45" height="45" transform="rotate(90 1339 3)" fill="#FF9E66"/>
<rect x="1294" y="3" width="45" height="45" transform="rotate(-90 1294 3)" fill="#FFBE99"/>
<rect x="1294" y="3" width="45" height="45" transform="rotate(90 1294 3)" fill="white"/>
<path d="M1294 48C1288.09 48 1282.24 46.836 1276.78 44.5746C1271.32 42.3131 1266.36 38.9984 1262.18 34.8198C1258 30.6412 1254.69 25.6804 1252.43 20.2208C1250.16 14.7611 1249 8.90948 1249 3L1294 3.00001L1294 48Z" fill="#FF9E66"/>
<rect x="1249" y="3" width="45" height="45" transform="rotate(-90 1249 3)" fill="#FF9E66"/>
<path d="M1294 -42C1288.09 -42 1282.24 -40.836 1276.78 -38.5746C1271.32 -36.3131 1266.36 -32.9984 1262.18 -28.8198C1258 -24.6412 1254.69 -19.6804 1252.43 -14.2208C1250.16 -8.7611 1249 -2.90948 1249 3L1294 3L1294 -42Z" fill="#FFBE99"/>
<rect x="1249" y="3" width="45" height="45" transform="rotate(90 1249 3)" fill="white"/>
<path d="M1204 48C1209.91 48 1215.76 46.836 1221.22 44.5746C1226.68 42.3131 1231.64 38.9984 1235.82 34.8198C1240 30.6412 1243.31 25.6804 1245.57 20.2208C1247.84 14.7611 1249 8.90948 1249 3L1204 3L1204 48Z" fill="#FF9E66"/>
<rect x="1204" y="3" width="45" height="45" transform="rotate(-90 1204 3)" fill="#FF9E66"/>
<rect x="1204" y="3" width="45" height="45" transform="rotate(90 1204 3)" fill="url(#paint3_linear_157_29787)"/>
<rect x="1159" y="3" width="45" height="45" transform="rotate(-90 1159 3)" fill="url(#paint4_linear_157_29787)"/>
<rect x="1159" y="3" width="45" height="22.5" transform="rotate(-90 1159 3)" fill="url(#paint5_linear_157_29787)"/>
<path d="M1204 -19.5C1204 -7.07359 1193.93 3 1181.5 3L1181.5 -42C1193.93 -42 1204 -31.9264 1204 -19.5Z" fill="#FFBE99"/>
</g>
<g opacity="0.9">
<path d="M997.809 31.5996C997.885 31.6078 997.958 31.616 998.035 31.6269C997.961 31.616 997.885 31.6078 997.809 31.5996Z" fill="#262626"/>
<path d="M1002.52 33.1201L1002.11 32.8994C1002.1 32.894 1002.08 32.8858 1002.07 32.8803C1002.03 32.8585 1001.99 32.8367 1001.94 32.8149C1001.97 32.8285 1002 32.8422 1002.03 32.8558C1001.96 32.8204 1001.9 32.7877 1001.83 32.7522L1001.55 32.6214C1001.57 32.6323 1001.6 32.646 1001.62 32.6569C1001.27 32.4934 1000.91 32.3462 1000.54 32.2154C998.954 31.842 997.321 31.6867 994.512 31.6404C999.719 31.8965 1001.51 32.6405 1002.11 32.8967C1002.25 32.9675 1002.38 33.0411 1002.52 33.1201Z" fill="#262626"/>
<path d="M998.376 31.4742C998.172 31.4251 997.967 31.3761 997.793 31.3379L997.684 31.3161C997.084 31.2207 995.893 31.4088 994.512 31.6458C994.632 31.6295 994.749 31.6159 994.869 31.6022C997.155 31.3406 997.817 31.3842 998.376 31.4769V31.4742Z" fill="#262626"/>
<path d="M996.689 31.1472C996.509 31.1227 996.286 31.0982 996.111 31.0791C996.111 31.0791 996.106 31.0791 996.103 31.0791C996.071 31.0873 996.065 31.09 994.512 31.6432C996.316 31.1636 996.493 31.1609 996.735 31.1554C996.722 31.1554 996.705 31.1527 996.689 31.15V31.1472Z" fill="#262626"/>
<path d="M995.329 31.0436C995.305 31.0354 995.275 31.0245 995.25 31.0164C995.25 31.0164 995.248 31.0164 995.245 31.0164C995.076 31.0082 994.972 31.0054 994.962 31.0054C994.866 31.0054 994.746 31 994.645 31C994.836 31.0082 994.842 31.0136 994.929 31.1254C994.893 31.2562 994.754 31.4288 994.515 31.6431C995.28 31.218 995.305 31.1362 995.332 31.0436H995.329Z" fill="#262626"/>
<path d="M994.057 31.1254C994.427 31.2643 994.446 31.3461 994.512 31.6431C994.782 31.0354 994.22 31.0245 993.724 31.0164C993.55 31.0245 993.318 31.0409 993.146 31.0545L992.983 31.0681C993.236 31.0518 993.765 31.0164 994.057 31.1254Z" fill="#262626"/>
<path d="M994.144 63.5873C994.207 63.5873 994.266 63.5901 994.329 63.5901H994.356C994.356 63.5901 994.378 63.5901 994.386 63.5901C994.457 63.5901 994.525 63.5901 994.596 63.5901C994.656 63.5901 994.716 63.5901 994.768 63.5901C994.771 63.5901 994.773 63.5901 994.776 63.5901C993.539 63.5683 975.836 56.859 978.698 43.2278C978.698 43.2278 978.698 43.2278 978.698 43.2305C978.6 43.6147 978.504 44.1325 978.422 44.5195C978.343 45.0155 978.278 45.6831 978.224 46.1818C977.932 58.4096 992.525 63.432 994.144 63.5873Z" fill="#262626"/>
<path d="M991.476 31.2835C991.443 31.2889 991.408 31.2971 991.375 31.3025C993.367 30.9619 994.198 31.4524 994.514 31.6432C993.95 31.0219 992.969 31.0327 991.479 31.2835H991.476Z" fill="#262626"/>
<path d="M980.289 39.2871C973.098 53.1526 993.242 62.9413 995.651 63.549C995.667 63.549 995.684 63.549 995.7 63.5463L995.806 63.5381C995.823 63.5381 995.839 63.5354 995.858 63.5327C995.981 63.5218 996.128 63.5054 996.253 63.4945C996.27 63.4945 996.286 63.4918 996.3 63.4891C993.446 61.3199 989.974 60.1371 987.225 57.8044C985.879 56.6626 982.726 53.9892 980.883 50.4138C977.196 43.2603 980.477 38.6984 982.088 36.7363C982.031 36.8017 981.976 36.8671 981.922 36.9298L981.649 37.2541C981.224 37.84 980.687 38.6439 980.303 39.2625C980.297 39.2707 980.295 39.2789 980.289 39.2871Z" fill="#262626"/>
<path d="M990.74 31.4386C990.74 31.4386 990.759 31.4332 990.77 31.4304C990.746 31.4359 990.716 31.4413 990.694 31.4468C990.514 31.4877 990.28 31.5504 990.102 31.5994C989.737 31.7002 989.255 31.8501 988.901 31.9837C988.683 32.0654 988.394 32.1744 988.181 32.2643C987.925 32.3733 987.59 32.5314 987.336 32.6486C987.078 32.7685 986.742 32.9456 986.497 33.0901C986.208 33.259 985.851 33.4798 985.535 33.6841C982.279 35.9242 979.709 39.5187 980.063 43.571C980.902 53.1308 991.729 59.6875 995.803 62.1564C996.744 62.7269 997.242 63.123 997.297 63.3446C997.297 63.3446 997.316 63.3419 997.324 63.3392C997.548 63.2983 997.828 63.2383 998.052 63.192C998.06 63.192 998.068 63.1893 998.076 63.1865C998.155 63.1593 998.212 63.0448 998.267 62.9794C998.082 62.6224 997.719 62.3663 995.76 61.0827C990.718 57.7799 985.644 53.981 982.682 48.5989C975.997 36.4474 988.961 30.1605 994.514 31.6403C993.438 31.2233 992.127 31.177 990.743 31.4359L990.74 31.4386Z" fill="#262626"/>
<path d="M996.376 59.7258C999.444 61.895 1000.17 62.4101 999.204 62.8897C999.215 62.887 999.226 62.8842 999.234 62.8815C999.384 62.8352 999.553 62.778 999.719 62.7235C999.834 62.6853 999.946 62.6444 1000.06 62.6036C1001.43 61.9659 1000.23 61.0829 997.373 58.9764C994.209 56.6464 990.269 53.7468 986.928 49.5065C977.063 36.9872 987.593 30.7902 994.509 31.6432C986.65 29.94 969.737 40.906 996.373 59.7258H996.376Z" fill="#262626"/>
<path d="M998.18 57.2894C1001.76 60.0337 1003.1 61.061 1001.32 62.0857C1001.34 62.0802 1001.35 62.0721 1001.36 62.0666C1001.66 61.9249 1002.03 61.7287 1002.32 61.5843C1003.7 60.7749 1003.15 59.8347 1002.34 58.9409C998.978 55.1993 994.509 52.7194 991.062 49.0704C979.968 37.325 987.41 31.4823 994.512 31.6458C987.274 30.9864 974.351 39.0201 998.18 57.2922V57.2894Z" fill="#262626"/>
<path d="M1000.95 55.0196C1004.35 57.7502 1005.57 59.219 1003.75 60.6961C1004.06 60.4781 1004.46 60.1674 1004.77 59.9303C1004.92 59.8022 1005.09 59.6632 1005.24 59.5242C1006.65 58.2298 1005.86 57.5294 996.346 49.1469C982.551 36.9982 988.767 32.7088 993.264 31.8123C989.187 32.5726 977.817 36.4886 1000.95 55.0196Z" fill="#262626"/>
<path d="M994.329 31.6567C993.994 31.6867 993.634 31.7385 993.261 31.8121C993.74 31.7221 994.116 31.6758 994.329 31.6567Z" fill="#262626"/>
<path d="M994.512 31.6431C994.512 31.6431 994.435 31.6485 994.329 31.6567C994.389 31.6512 994.452 31.6458 994.512 31.6431Z" fill="#262626"/>
<path d="M1000.31 49.6728C1005.97 54.2238 1008.09 56.3058 1006.25 58.5677C1006.26 58.5541 1006.27 58.5432 1006.28 58.5295C1006.57 58.2189 1006.92 57.8074 1007.19 57.494C1007.2 57.4858 1007.21 57.4804 1007.21 57.4722C1008.82 55.3629 1007.28 53.1419 1000.64 47.9832C983.322 34.5265 992.498 32.0139 994.514 31.646C993.046 31.8313 980.731 33.916 1000.31 49.6728H1000.31Z" fill="#262626"/>
<path d="M1001.48 46.0317C1007.88 50.8116 1009.64 53.2561 1008.44 55.7006C1008.49 55.6188 1008.54 55.5398 1008.58 55.4607L1008.63 55.3844C1008.66 55.3272 1008.69 55.2754 1008.72 55.2237L1009.09 54.5206C1009.13 54.4306 1009.17 54.3407 1009.22 54.2535C1010.64 50.9779 1005.23 47.0373 1001.64 44.4239C989.936 35.9078 991.304 32.7766 994.512 31.6484C991.773 32.3624 986.966 35.1966 1001.48 46.0372V46.0317Z" fill="#262626"/>
<path d="M1001.79 42.3202C1007.38 46.2553 1010.72 48.8878 1010.03 52.1716C1010.06 52.0598 1010.1 51.9481 1010.13 51.8391C1010.24 51.4303 1010.35 50.9698 1010.44 50.6019C1010.92 47.329 1007.54 44.8328 1001.99 41.0366C998.321 38.5268 991.495 33.8559 994.511 31.6431C989.78 33.8586 998.82 40.2273 1001.79 42.3202Z" fill="#262626"/>
<path d="M1002.2 39.4263C1008.5 43.5113 1010.64 45.3644 1010.75 48.1767C1010.75 48.1222 1010.76 48.065 1010.76 48.0105L1010.78 47.3237L1010.76 46.6588C1010.76 46.5825 1010.76 46.5089 1010.75 46.4326C1010.51 43.4813 1006.58 41.0477 1001.61 37.9738C998.106 35.8127 994.141 33.3601 994.514 31.646C992.877 33.3792 998.49 37.02 1002.2 39.429L1002.2 39.4263Z" fill="#262626"/>
<path d="M1001.79 36.8183C1007.59 40.1103 1009.78 41.71 1010.47 44.1217C1010.38 43.7048 1010.24 43.1761 1010.12 42.7292C1010.1 42.6365 1010.07 42.5466 1010.04 42.4539C1009.1 40.0013 1005.94 38.2408 1000.46 35.3576C996.577 33.3165 995.299 32.518 994.512 31.646C994.964 32.9432 997.828 34.5701 1001.79 36.821V36.8183Z" fill="#262626"/>
<path d="M1009.21 40.3254C1009.19 40.2763 1009.17 40.2273 1009.14 40.1782L1008.81 39.5269L1008.59 39.1372C1008.55 39.0664 1008.51 38.9955 1008.47 38.9247C1007.72 37.7637 1006.37 36.8999 1004.43 35.8861C1001.24 34.2129 997.809 33.0874 994.515 31.6431C995.542 32.2971 997.431 33.1637 999.821 34.2619C1006.16 37.1751 1008.12 38.4341 1009.22 40.3254H1009.21Z" fill="#262626"/>
<path d="M1007.24 37.156C1007.21 37.1179 1007.18 37.0852 1007.15 37.0443C1007.13 37.0198 1007.11 36.998 1007.09 36.9734C1007.06 36.9435 1007.04 36.9135 1007.01 36.8835C1006.77 36.6056 1006.5 36.3031 1006.29 36.0605C1004.87 34.608 1000.91 33.1228 994.512 31.6431C1004.21 34.5508 1006.09 35.9134 1007.24 37.156Z" fill="#262626"/>
<path d="M1004.58 34.5099C1004.34 34.3273 1004.08 34.1366 1003.86 33.9731C1003.81 33.9404 1003.76 33.9104 1003.72 33.8777C1002.18 32.9075 999.085 32.1554 994.512 31.6431C997.357 32.0655 1002.44 33.0193 1004.78 34.6734C1004.71 34.6162 1004.64 34.5617 1004.58 34.5099Z" fill="#262626"/>
<path d="M998.12 31.6404C998.499 31.6922 998.875 31.7603 999.24 31.8448C999.891 31.9538 999.973 31.9783 1000.47 32.1391C1000.46 32.1337 1000.44 32.1255 1000.43 32.1228C1000.18 32.0247 999.839 31.9102 999.586 31.8203H999.58C998.984 31.6268 998.283 31.6023 997.471 31.5696C997.509 31.5723 997.545 31.5777 997.583 31.5805C997.169 31.5423 996.746 31.5205 996.318 31.5205C995.662 31.5532 995.575 31.5587 994.512 31.6459C996.201 31.575 996.964 31.5886 998.12 31.6431V31.6404ZM997.806 31.6023C997.883 31.6104 997.956 31.6186 998.033 31.6295C997.959 31.6186 997.883 31.6104 997.806 31.6023Z" fill="#262626"/>
</g>
<g opacity="0.9">
<path d="M308.974 23.9343C309.033 23.9554 309.096 23.9765 309.159 24.0018C309.606 24.1535 310.163 24.3263 310.588 24.457C311.031 24.5835 311.625 24.7226 312.072 24.828C306.259 23.4074 301.298 20.225 297.332 15.3606L298.449 16.739C298.588 16.8949 298.71 17.034 298.828 17.1605C299.241 17.5904 299.73 18.0878 300.227 18.5684C300.535 18.8508 300.919 19.188 301.45 19.6601C301.724 19.8793 302.044 20.1238 302.373 20.3683C305.193 22.4464 307.119 23.2135 308.978 23.9385L308.974 23.9343Z" fill="#262626"/>
<path d="M294.014 9.43413C298.633 20.3431 310.204 24.5204 314.293 25.2075C314.314 25.2075 314.331 25.2117 314.352 25.2159C314.567 25.2412 314.837 25.2707 315.047 25.2918L315.477 25.3297C315.477 25.3297 315.494 25.3297 315.498 25.3297C313.087 25.1063 296.505 20.2124 292.77 5.15991C292.812 5.38332 292.85 5.60251 292.892 5.80484C293.17 6.85443 293.596 8.22859 293.954 9.27396C293.976 9.32876 293.997 9.37933 294.014 9.43413Z" fill="#262626"/>
<path d="M316.949 25.4057C317.046 25.4057 317.139 25.4099 317.235 25.4099H317.278C317.278 25.4099 317.311 25.4099 317.324 25.4099C317.434 25.4099 317.539 25.4099 317.649 25.4099C317.741 25.4099 317.834 25.4099 317.914 25.4099C317.918 25.4099 317.923 25.4099 317.927 25.4099C316.013 25.3762 288.631 14.9983 293.057 -6.08618C293.057 -6.08618 293.057 -6.08619 293.057 -6.08198C292.905 -5.48763 292.758 -4.68674 292.631 -4.08817C292.509 -3.32101 292.408 -2.28828 292.324 -1.51689C291.873 17.3968 314.445 25.1654 316.949 25.4057Z" fill="#262626"/>
<path d="M295.519 -12.1815C284.395 9.26549 315.554 24.4065 319.28 25.3465C319.305 25.3465 319.331 25.3465 319.356 25.3423L319.52 25.3297C319.546 25.3297 319.571 25.3255 319.6 25.3212C319.79 25.3044 320.018 25.2791 320.212 25.2622C320.237 25.2622 320.262 25.258 320.283 25.2538C315.87 21.8985 310.5 20.0691 306.247 16.4609C304.164 14.6947 299.287 10.5596 296.438 5.02921C290.735 -6.03573 295.81 -13.092 298.301 -16.127C298.212 -16.0258 298.128 -15.9246 298.044 -15.8277L297.622 -15.3261C296.965 -14.4198 296.134 -13.1763 295.54 -12.2195C295.531 -12.2068 295.527 -12.1942 295.519 -12.1815Z" fill="#262626"/>
<path d="M311.684 -24.3215C311.684 -24.3215 311.713 -24.3299 311.73 -24.3342C311.692 -24.3257 311.646 -24.3173 311.612 -24.3089C311.334 -24.2456 310.972 -24.1487 310.698 -24.0728C310.133 -23.9169 309.387 -23.685 308.839 -23.4785C308.501 -23.352 308.055 -23.1834 307.726 -23.0443C307.33 -22.8757 306.811 -22.6312 306.419 -22.45C306.019 -22.2645 305.5 -21.9905 305.121 -21.7671C304.674 -21.5057 304.122 -21.1643 303.633 -20.8482C298.596 -17.3833 294.621 -11.8234 295.169 -5.55538C296.467 9.23159 313.214 19.3734 319.516 23.1924C320.971 24.0748 321.741 24.6874 321.826 25.0302C321.826 25.0302 321.855 25.026 321.868 25.0218C322.214 24.9586 322.648 24.8658 322.993 24.7942C323.006 24.7942 323.019 24.7899 323.031 24.7857C323.154 24.7436 323.242 24.5665 323.326 24.4654C323.04 23.9132 322.479 23.5169 319.448 21.5316C311.65 16.4227 303.802 10.5467 299.22 2.22169C288.88 -16.5739 308.931 -26.2984 317.522 -24.0096C315.857 -24.6545 313.83 -24.7262 311.688 -24.3257L311.684 -24.3215Z" fill="#262626"/>
<path d="M320.401 19.4325C325.147 22.7878 326.277 23.5845 324.776 24.3264C324.793 24.3222 324.81 24.318 324.823 24.3137C325.054 24.2421 325.316 24.1536 325.573 24.0693C325.75 24.0102 325.923 23.947 326.096 23.8838C328.22 22.8974 326.37 21.5317 321.944 18.2733C317.05 14.6693 310.955 10.1843 305.787 3.62547C290.528 -15.7392 306.815 -25.3246 317.513 -24.0053C305.357 -26.6398 279.197 -9.67775 320.397 19.4325H320.401Z" fill="#262626"/>
<path d="M323.191 15.664C328.726 19.9087 330.8 21.4978 328.052 23.0828C328.073 23.0743 328.094 23.0617 328.115 23.0533C328.574 22.8341 329.148 22.5306 329.59 22.3072C331.732 21.0552 330.876 19.601 329.632 18.2184C324.427 12.4309 317.514 8.59507 312.181 2.9509C295.021 -15.2167 306.533 -24.2541 317.518 -24.0012C306.322 -25.0213 286.334 -12.5948 323.191 15.6682V15.664Z" fill="#262626"/>
<path d="M327.47 12.1529C332.743 16.3765 334.623 18.6485 331.807 20.9332C332.288 20.5959 332.899 20.1154 333.38 19.7487C333.62 19.5506 333.873 19.3356 334.113 19.1206C336.301 17.1184 335.074 16.0351 320.355 3.06909C299.017 -15.7223 308.632 -22.3571 315.587 -23.7439C309.281 -22.5679 291.695 -16.5106 327.47 12.1529Z" fill="#262626"/>
<path d="M326.488 3.88266C335.234 10.9221 338.518 14.1425 335.673 17.6411C335.694 17.62 335.711 17.6032 335.728 17.5821C336.174 17.1016 336.714 16.4651 337.136 15.9803C337.144 15.9677 337.152 15.9592 337.161 15.9466C339.652 12.684 337.27 9.24862 327.002 1.26922C300.21 -19.5455 314.403 -23.4319 317.522 -24.001C315.25 -23.7143 296.202 -20.4897 326.492 3.88266H326.488Z" fill="#262626"/>
<path d="M328.296 -1.74893C338.194 5.64455 340.917 9.42561 339.066 13.2066C339.142 13.0802 339.214 12.958 339.285 12.8357L339.353 12.7177C339.403 12.6292 339.45 12.5491 339.496 12.469L340.061 11.3815C340.128 11.2424 340.196 11.1033 340.263 10.9684C342.472 5.90169 334.101 -0.193514 328.545 -4.2359C310.441 -17.4084 312.557 -22.2517 317.518 -23.9968C313.282 -22.8924 305.846 -18.5086 328.296 -1.74049V-1.74893Z" fill="#262626"/>
<path d="M328.776 -7.48992C337.418 -1.40316 342.594 2.66874 341.519 7.74807C341.57 7.57525 341.624 7.40244 341.671 7.23383C341.844 6.60154 342.016 5.88917 342.156 5.32012C342.897 0.257645 337.671 -3.60349 329.084 -9.47529C323.411 -13.3575 312.851 -20.5824 317.518 -24.0051C310.2 -20.5782 324.182 -10.7272 328.776 -7.48992Z" fill="#262626"/>
<path d="M329.413 -11.9665C339.151 -5.64794 342.46 -2.78159 342.637 1.56851C342.641 1.4842 342.649 1.39568 342.653 1.31137L342.683 0.249144L342.658 -0.779369C342.653 -0.897396 342.649 -1.01121 342.641 -1.12924C342.266 -5.69431 336.183 -9.45849 328.49 -14.2133C323.078 -17.5559 316.945 -21.3496 317.522 -24.001C314.989 -21.3201 323.672 -15.6886 329.418 -11.9623L329.413 -11.9665Z" fill="#262626"/>
</g>
</g>
<rect x="1" y="1" width="1337" height="46" rx="5" stroke="#262626" stroke-width="2"/>
<defs>
<linearGradient id="paint0_linear_157_29787" x1="22.5" y1="0" x2="22.5" y2="45" gradientUnits="userSpaceOnUse">
<stop stop-color="#FF9E66"/>
<stop offset="1" stop-color="#FF9E66" stop-opacity="0"/>
</linearGradient>
<linearGradient id="paint1_linear_157_29787" x1="22.5" y1="0" x2="22.5" y2="45" gradientUnits="userSpaceOnUse">
<stop stop-color="#FF9E66" stop-opacity="0"/>
<stop offset="0.766167" stop-color="#FF9E66"/>
</linearGradient>
<linearGradient id="paint2_linear_157_29787" x1="22.5" y1="0" x2="22.5" y2="22.5" gradientUnits="userSpaceOnUse">
<stop stop-color="#FFBE99" stop-opacity="0"/>
<stop offset="1" stop-color="#FFBE99"/>
</linearGradient>
<linearGradient id="paint3_linear_157_29787" x1="1226.5" y1="3" x2="1226.5" y2="48" gradientUnits="userSpaceOnUse">
<stop stop-color="#FF9E66"/>
<stop offset="1" stop-color="#FF9E66" stop-opacity="0"/>
</linearGradient>
<linearGradient id="paint4_linear_157_29787" x1="1181.5" y1="3" x2="1181.5" y2="48" gradientUnits="userSpaceOnUse">
<stop stop-color="#FF9E66" stop-opacity="0"/>
<stop offset="0.766167" stop-color="#FF9E66"/>
</linearGradient>
<linearGradient id="paint5_linear_157_29787" x1="1181.5" y1="3" x2="1181.5" y2="25.5" gradientUnits="userSpaceOnUse">
<stop stop-color="#FFBE99" stop-opacity="0"/>
<stop offset="1" stop-color="#FFBE99"/>
</linearGradient>
<clipPath id="clip0_157_29787">
<rect width="1339" height="48" rx="6" fill="white"/>
</clipPath>
</defs>
</svg>
